<svg width="100" height="101" viewBox="0 0 100 101" fill="none" xmlns="http://www.w3.org/2000/svg">
<g clip-path="url(#clip0_1260_3736)">
<path d="M78.986 24.7467C79.263 25.1968 79.7436 25.444 80.2357 25.444C80.4974 25.444 80.7622 25.3738 81.0017 25.2266L88.9424 20.3422C89.6314 19.9188 89.8465 19.0163 89.4223 18.3273C88.9989 17.6384 88.0963 17.4232 87.4066 17.8474L79.4667 22.7318C78.7778 23.1552 78.5626 24.0578 78.986 24.7467Z" fill="white"/>
<path d="M98.6769 34.4786L87.036 33.348C86.2311 33.2686 85.5147 33.8591 85.4361 34.664C85.3583 35.4697 85.9473 36.1861 86.7529 36.2639L98.3931 37.3946C98.4419 37.3992 98.4892 37.4015 98.5365 37.4015C99.2819 37.4015 99.9198 36.8354 99.993 36.0785C100.071 35.2736 99.4818 34.5572 98.6769 34.4786Z" fill="white"/>
<path d="M73.0425 14.516C73.2164 14.5839 73.3965 14.6167 73.5727 14.6167C74.1594 14.6167 74.7133 14.2619 74.9384 13.6821L79.178 2.78196C79.4718 2.02818 79.0979 1.17902 78.3442 0.886055C77.5904 0.593086 76.7412 0.966164 76.4482 1.71995L72.2078 12.6201C71.9149 13.3738 72.2879 14.223 73.0425 14.516Z" fill="white"/>
<path d="M62.6961 6.44254C61.7119 4.84876 59.6153 4.35133 58.0208 5.33552L56.2683 6.4166C55.4955 6.89268 54.9553 7.64188 54.7462 8.52461C54.5372 9.40809 54.6844 10.3198 55.1605 11.0919L56.1684 12.7246L33.1345 41.2402L28.27 44.2416C27.5818 44.6666 27.3682 45.5691 27.7931 46.2573C28.0701 46.7059 28.55 46.9531 29.0413 46.9531C29.303 46.9531 29.5692 46.8829 29.8088 46.7349L33.6395 44.3713L41.1049 56.4708C40.0261 56.4006 38.9503 56.6241 37.973 57.1261C37.9555 57.1345 37.9387 57.1437 37.9211 57.1528C37.7899 57.2223 37.6595 57.2948 37.532 57.3733L33.152 60.0894C32.6714 60.3877 32.2281 60.7402 31.8253 61.1346C31.3377 61.6115 30.9113 62.1493 30.5664 62.7368L29.4853 64.3664L28.6903 65.5627C28.6835 65.5604 28.6758 65.5581 28.6697 65.5559C28.6575 65.5505 28.6461 65.5444 28.6339 65.5391C28.5721 65.5116 28.511 65.4811 28.4523 65.4483C28.4393 65.4414 28.4271 65.4346 28.4149 65.4277C28.3501 65.3888 28.2867 65.3468 28.2265 65.3018C28.2135 65.2926 28.2013 65.2827 28.1891 65.2728C28.1342 65.2301 28.08 65.1843 28.0289 65.1355C28.0228 65.1294 28.0159 65.124 28.0098 65.1179C27.9549 65.0645 27.903 65.0065 27.8534 64.947C27.8427 64.9341 27.8328 64.9203 27.8221 64.9074C27.7733 64.8448 27.7267 64.7807 27.6848 64.7128L21.3547 54.4536C21.0556 53.9691 20.9633 53.3977 21.0945 52.8445C21.2257 52.2906 21.5645 51.8214 22.0482 51.5231L23.9433 50.3543C24.6315 49.9293 24.8459 49.0268 24.4209 48.3386C23.996 47.6497 23.0934 47.436 22.4052 47.861L20.5101 49.0298C19.3604 49.7394 18.5555 50.854 18.2434 52.1693C18.0428 53.0185 18.0641 53.8852 18.2945 54.7023L16.8854 55.572C15.0002 56.7355 14.4127 59.2158 15.5762 61.1018L19.1513 66.8963C19.7144 67.8096 20.6001 68.4482 21.6446 68.6961C21.9543 68.7694 22.2672 68.806 22.5784 68.806C23.3147 68.806 24.0379 68.6023 24.6803 68.2056L26.0918 67.335C26.3863 67.6028 26.709 67.834 27.0554 68.0247L22.9881 74.1511L22.0291 74.8057C21.8292 74.7043 21.6095 74.6402 21.3791 74.6203C20.9076 74.5807 20.4498 74.7256 20.089 75.0293L17.5652 77.1533C16.9769 76.7779 16.2056 76.7718 15.6013 77.1838C15.5731 77.2037 15.5449 77.2235 15.5182 77.2449L1.3092 88.4608C0.476837 89.1177 0 90.1027 0 91.1624V95.7255C0 97.623 1.54419 99.1672 3.44162 99.1672H26.6853C27.7336 99.1672 28.7117 98.6987 29.3686 97.8808L31.2958 95.4829C31.633 95.0969 31.7764 94.6025 31.7253 94.1226L34.3185 91.9398C34.5718 91.727 34.7542 91.4538 34.8564 91.1479L40.834 92.3732C40.9225 92.3915 41.0118 92.4014 41.1018 92.4029C41.2766 92.406 41.4505 92.4083 41.6245 92.4083C43.0412 92.4083 44.4489 92.2648 45.9282 91.3707L51.9501 87.7841C52.0508 87.7902 52.1515 87.794 52.2514 87.794C53.1204 87.794 53.9764 87.5552 54.7371 87.0898L59.5749 84.1327C61.8248 82.7579 62.5374 79.8083 61.1626 77.5584C60.6934 76.7894 60.0296 76.1867 59.2453 75.7899C60.0044 74.335 60.0067 72.5276 59.0904 71.0277C58.4251 69.9389 57.3792 69.1714 56.1424 68.8617C56.398 67.6883 56.2218 66.4195 55.5481 65.3163C54.9118 64.2734 53.9246 63.5303 52.758 63.1953C53.0769 61.97 52.9198 60.6219 52.2095 59.4584C52.0248 59.1563 51.8089 58.8817 51.5701 58.6314L80.5954 52.3135L81.6032 53.9462C82.2449 54.9861 83.3595 55.5591 84.5001 55.5591C85.1082 55.5591 85.7239 55.3966 86.2785 55.054L88.031 53.9729C88.8031 53.4961 89.344 52.7476 89.5531 51.8641C89.7621 50.9814 89.6149 50.0697 89.138 49.2969L62.6961 6.44254ZM23.143 65.7123C22.895 65.8649 22.6028 65.9122 22.3206 65.845C22.0375 65.7779 21.7979 65.6047 21.6446 65.3575L18.0695 59.563C17.7544 59.0526 17.9138 58.3804 18.4242 58.0646L19.6671 57.2978L24.3858 64.9447L23.143 65.7123ZM27.0844 96.046C26.9867 96.168 26.8417 96.2375 26.6853 96.2375H3.44162C3.15933 96.2375 2.92969 96.0078 2.92969 95.7255V91.1624C2.92969 91.0045 3.00064 90.858 3.12424 90.7603L16.4513 80.2402L28.463 94.3309L27.0844 96.046ZM30.0629 91.6919L19.5267 79.3315L21.0869 78.0185L31.5445 90.446L30.0629 91.6919ZM44.4214 88.8583C43.5272 89.3992 42.688 89.4946 41.2888 89.4763L33.7837 87.9375C33.606 87.9008 33.4267 87.8978 33.2535 87.926L24.041 76.9794L24.8756 76.4094C24.8764 76.4094 24.8772 76.4087 24.8787 76.4079C24.8924 76.398 24.9062 76.3866 24.9199 76.3766C24.9512 76.353 24.9825 76.3293 25.0114 76.3042C25.0259 76.2912 25.0397 76.2775 25.0534 76.2645C25.0832 76.237 25.1106 76.2088 25.1373 76.179C25.148 76.1676 25.1595 76.1554 25.1694 76.1432C25.2022 76.1035 25.2335 76.0631 25.2617 76.0211C25.2647 76.0173 25.2678 76.0142 25.2701 76.0104L25.2769 76.0005C25.2792 75.9967 25.2815 75.9929 25.2838 75.9891L33.0307 64.3214C33.0475 64.2962 33.0635 64.2703 33.0788 64.2444C33.4694 63.5692 34.0286 62.9939 34.6962 62.5796L39.0762 59.8636C39.1571 59.8132 39.2395 59.7682 39.3227 59.7262C39.36 59.7072 39.3982 59.6911 39.4356 59.6736C39.4798 59.6538 39.5233 59.6339 39.5683 59.6164C39.6194 59.5958 39.6706 59.5767 39.7232 59.5592C39.7499 59.5492 39.7774 59.5408 39.8048 59.5325C39.8689 59.5126 39.9338 59.4935 39.9986 59.4775H39.9994C40.2351 59.4203 40.4747 59.3921 40.7135 59.3905C40.7188 59.3905 40.7242 59.3905 40.7288 59.3905C40.799 59.3905 40.8684 59.3936 40.9378 59.3982C40.9599 59.4005 40.9821 59.402 41.0049 59.4043C41.0667 59.4096 41.1278 59.4165 41.1888 59.4256C41.2247 59.431 41.2613 59.4386 41.2979 59.4455C41.391 59.463 41.4833 59.4852 41.5741 59.5119C41.6092 59.5218 41.645 59.5309 41.6794 59.5416C41.7259 59.5576 41.7709 59.5752 41.8167 59.5935C41.8526 59.6072 41.8892 59.621 41.9243 59.6362C41.9693 59.6553 42.0143 59.6766 42.0586 59.6988C42.0921 59.7156 42.1249 59.7323 42.157 59.7499C42.2012 59.7735 42.2455 59.7987 42.289 59.8254C42.3187 59.8437 42.3477 59.8628 42.3767 59.8819C42.4202 59.9109 42.4637 59.9399 42.5056 59.9719C42.5316 59.991 42.556 60.0116 42.5804 60.0314C42.6239 60.0657 42.6666 60.1001 42.7078 60.1375C42.9077 60.3175 43.0832 60.525 43.2266 60.7593L43.3342 60.9355L44.8959 63.4837L46.8559 66.682L47.3541 67.496C47.4014 67.5731 47.4403 67.6532 47.4701 67.7363C47.5616 67.9866 47.5761 68.2597 47.5113 68.5298C47.4182 68.9181 47.1733 69.2508 46.8224 69.4652L45.9412 70.0038L45.9404 70.0046C45.8794 70.0412 45.8176 70.0725 45.7535 70.0999C45.7397 70.106 45.726 70.1121 45.7123 70.1175C45.649 70.1434 45.5849 70.1648 45.52 70.1816C45.5124 70.1839 45.504 70.1854 45.4964 70.1869C45.4353 70.2014 45.3743 70.2121 45.3133 70.2189C45.3011 70.2205 45.2896 70.222 45.2774 70.2235C45.2118 70.2289 45.1462 70.2304 45.0813 70.2281C45.0691 70.2273 45.0569 70.2266 45.0447 70.2258C44.9783 70.2212 44.9127 70.2136 44.8479 70.2006C44.8471 70.1999 44.8463 70.1999 44.8456 70.1999C44.7762 70.1854 44.709 70.1655 44.6426 70.1411C44.6365 70.1388 44.6312 70.1373 44.6251 70.135C44.4893 70.0831 44.3611 70.0099 44.2459 69.9161C44.2451 69.9161 44.2451 69.9153 44.2451 69.9153C44.1872 69.868 44.1353 69.8176 44.0872 69.7642C44.0834 69.7597 44.0796 69.7551 44.075 69.7497C44.0292 69.6963 43.9865 69.6406 43.9507 69.5811L42.4904 67.1939C41.9464 66.3043 41.0835 65.6802 40.0604 65.4376C39.0121 65.1881 37.9257 65.3667 37.0026 65.9396C36.631 66.17 36.3823 66.5538 36.3228 66.9864C36.306 67.1115 36.2854 67.2343 36.2633 67.3556C36.2465 67.4441 36.2274 67.5319 36.2076 67.6188C36.2015 67.6478 36.1954 67.6776 36.1885 67.7066C36.1626 67.8165 36.1343 67.9248 36.1031 68.0316C36.1023 68.0354 36.1008 68.04 36.0992 68.0446C35.9352 68.6069 35.7048 69.1279 35.4088 69.6017C35.408 69.6025 35.408 69.6033 35.408 69.604C34.8625 70.4783 34.0919 71.2176 33.0818 71.8318C32.3906 72.2522 32.1709 73.1532 32.5912 73.8444C33.0116 74.5357 33.9127 74.7554 34.6039 74.335C35.3172 73.9009 35.9497 73.4141 36.5028 72.8778L42.6201 82.5252C43.7469 84.2731 45.6947 85.287 47.7097 85.287C47.8165 85.287 47.9233 85.2817 48.0301 85.2756C48.0721 85.3519 48.1148 85.4274 48.1606 85.5029C48.333 85.7844 48.5313 86.0438 48.7518 86.2796L44.4214 88.8583ZM45.6642 78.0887C45.6642 78.0894 45.665 78.0902 45.665 78.091C45.6894 78.1596 45.7161 78.2268 45.7443 78.2947C45.7474 78.3023 45.7504 78.3107 45.7542 78.3191C45.7794 78.3801 45.8069 78.4404 45.8351 78.5007C45.842 78.5136 45.8473 78.5281 45.8542 78.5419C45.8809 78.5983 45.9106 78.654 45.9396 78.7097C45.9488 78.7265 45.9564 78.7433 45.9656 78.7593C46.0045 78.831 46.0457 78.902 46.0884 78.9722C46.1617 79.0927 46.2418 79.2079 46.3242 79.3201C46.3539 79.3597 46.3844 79.3986 46.4149 79.4375C46.4691 79.5062 46.5248 79.5726 46.582 79.6382C46.6225 79.684 46.6621 79.7313 46.7041 79.7755C46.7354 79.8091 46.7697 79.8396 46.8025 79.8724C46.9208 79.9907 47.0444 80.1021 47.1741 80.2074C47.1878 80.218 47.2008 80.2295 47.2145 80.2394C47.4663 80.4393 47.7364 80.6125 48.024 80.7582C47.7592 81.2564 47.5845 81.7966 47.5067 82.3527C46.5408 82.2925 45.6268 81.7836 45.0882 80.9474L38.3537 70.3265C38.6658 69.6818 38.9061 68.9937 39.0694 68.2605C39.1739 68.2544 39.2792 68.2635 39.3829 68.2879C39.6408 68.349 39.8567 68.5039 39.991 68.7228L41.4513 71.1101C41.4536 71.1131 41.4558 71.1162 41.4581 71.12C41.5298 71.2367 41.6069 71.3496 41.6901 71.4587C41.7511 71.5388 41.8167 71.6136 41.8823 71.6884C41.9052 71.7143 41.9258 71.7425 41.9495 71.7685C41.9525 71.7814 41.9563 71.7944 41.9594 71.8074C41.9823 71.9089 42.0082 72.0096 42.0372 72.1095C42.0464 72.1385 42.0547 72.1675 42.0631 72.1965C42.099 72.3094 42.1371 72.4216 42.1814 72.5314C42.1852 72.5429 42.1906 72.5535 42.1951 72.5642C42.2356 72.6649 42.2806 72.7634 42.3286 72.861C42.3424 72.8892 42.3561 72.9175 42.3706 72.9449C42.4255 73.0517 42.4828 73.157 42.5453 73.2608C43.2098 74.3487 44.2543 75.1147 45.4887 75.426C45.298 76.2988 45.3514 77.2227 45.6642 78.0887ZM46.5988 60.6547L47.0909 60.3541C47.525 60.0886 48.0362 60.0085 48.5313 60.1275C49.0257 60.2473 49.4438 60.5517 49.7086 60.9859C50.2556 61.8815 49.9725 63.0557 49.0768 63.6027L48.5878 63.9018L47.1397 61.539L46.5988 60.6547ZM57.5157 78.2504C57.9971 78.3664 58.4038 78.6632 58.6624 79.0858C59.1949 79.9579 58.9188 81.1008 58.0467 81.634L53.2089 84.5912C52.8206 84.8285 52.3689 84.9116 51.9241 84.8338C51.899 84.8285 51.873 84.8224 51.8471 84.8186C51.8341 84.8155 51.8204 84.814 51.8074 84.8109C51.3252 84.695 50.9186 84.3982 50.6599 83.9755C50.544 83.7855 50.4692 83.5834 50.4272 83.3774C50.4265 83.3713 50.4265 83.3659 50.425 83.3606C50.309 82.7586 50.5028 82.1437 50.9163 81.7164C50.9277 81.705 50.9384 81.6928 50.9499 81.6821C50.9712 81.6615 50.9933 81.6417 51.0155 81.6218C51.0376 81.602 51.0605 81.5822 51.0849 81.5639C51.1024 81.5494 51.1192 81.5356 51.1375 81.5219C51.181 81.4899 51.2245 81.4593 51.2711 81.4303C51.2726 81.4296 51.2741 81.4288 51.2749 81.4281L52.2362 80.8406C52.4055 80.762 52.5719 80.6758 52.7336 80.5774L56.4346 78.3145C56.778 78.1863 57.151 78.1627 57.5157 78.2504ZM54.1458 71.8295C54.5395 71.6411 54.982 71.5938 55.4123 71.6975C55.9067 71.8165 56.3248 72.1217 56.5903 72.5558C57.1373 73.4515 56.8535 74.6249 55.9586 75.172L55.0873 75.7045C54.9164 75.7831 54.7485 75.8716 54.586 75.9707L50.9041 78.2207C50.2167 78.4907 49.4431 78.332 48.9174 77.8468C48.9166 77.8461 48.9166 77.8461 48.9166 77.8461C48.8754 77.8079 48.8365 77.769 48.7991 77.727C48.7892 77.7156 48.7801 77.7034 48.7701 77.6919C48.7427 77.6599 48.7152 77.6279 48.6893 77.5935C48.6534 77.5455 48.6198 77.4959 48.5878 77.4447C48.5558 77.3913 48.5268 77.3379 48.5001 77.283C48.4917 77.2655 48.4848 77.2479 48.4764 77.2296C48.4596 77.1922 48.4428 77.1541 48.4283 77.1152C48.4207 77.0946 48.4146 77.0747 48.4077 77.0541C48.3955 77.0167 48.3841 76.9801 48.3742 76.9427C48.3688 76.9221 48.3635 76.9008 48.3589 76.8802C48.3505 76.8428 48.3429 76.8046 48.336 76.7657C48.333 76.7459 48.3299 76.7261 48.3269 76.7062C48.3215 76.6665 48.3177 76.6269 48.3154 76.5872C48.3139 76.5681 48.3124 76.5491 48.3116 76.53C48.3101 76.4888 48.3101 76.4476 48.3116 76.4071C48.3116 76.3888 48.3116 76.3713 48.3131 76.3537C48.3147 76.3118 48.32 76.2706 48.3246 76.2294C48.3269 76.2118 48.3276 76.1943 48.3307 76.1767C48.336 76.1401 48.3437 76.1035 48.3513 76.0669C48.4344 75.6747 48.6397 75.3078 48.9616 75.0262C48.9746 75.0148 48.9861 75.0011 48.999 74.9896C49.0173 74.9736 49.0349 74.9576 49.054 74.9423C49.0997 74.9164 49.1463 74.8927 49.1913 74.8652L53.9444 71.96C54.0131 71.918 54.0802 71.8745 54.1458 71.8295ZM51.87 65.9854C52.3643 66.1044 52.7824 66.4096 53.0479 66.8437C53.5576 67.6784 53.3455 68.7549 52.5894 69.3408C52.5406 69.3675 52.4925 69.395 52.4445 69.424L48.7747 71.667C48.7869 71.6579 48.7984 71.6472 48.8106 71.6373C48.8808 71.5816 48.951 71.5251 49.0166 71.4656C49.0578 71.429 49.0967 71.3901 49.1364 71.3519C49.1959 71.2939 49.2554 71.2352 49.3118 71.1734C49.3507 71.1322 49.3874 71.0887 49.424 71.046C49.4766 70.9834 49.5285 70.9209 49.5773 70.856C49.6117 70.811 49.646 70.7652 49.6788 70.7179C49.7253 70.6515 49.7696 70.5836 49.8131 70.5142C49.8428 70.4661 49.8726 70.4188 49.9001 70.37C49.942 70.2968 49.9802 70.2212 50.0175 70.1457C50.0412 70.0976 50.0664 70.0511 50.0877 70.0023C50.1259 69.9176 50.1595 69.8306 50.193 69.7429C50.2083 69.7009 50.2266 69.6597 50.2411 69.617C50.2861 69.485 50.3265 69.3515 50.3593 69.2149C50.3906 69.0845 50.415 68.9532 50.4341 68.822C50.4402 68.78 50.4433 68.7381 50.4486 68.6961C50.4593 68.6061 50.4677 68.5168 50.473 68.4268C50.4753 68.378 50.4761 68.3291 50.4768 68.2803C50.4791 68.1964 50.4784 68.1132 50.4753 68.0301C50.4738 67.9805 50.4707 67.9309 50.4677 67.8813C50.4616 67.7974 50.4517 67.7135 50.441 67.6303C50.4349 67.5838 50.4295 67.5372 50.4219 67.4914C50.4059 67.3968 50.386 67.3038 50.3632 67.2107C50.3555 67.1771 50.3494 67.1428 50.341 67.1092C50.3075 66.9833 50.2693 66.859 50.2243 66.7361C50.2151 66.7125 50.2045 66.6888 50.1945 66.6644C50.1625 66.582 50.1312 66.4989 50.0938 66.418L50.4303 66.212C50.8644 65.9465 51.3756 65.8664 51.87 65.9854ZM86.702 51.1897C86.6852 51.2599 86.6356 51.3911 86.4922 51.4796L84.7397 52.5615C84.5207 52.6965 84.2316 52.6286 84.0958 52.4089L65.6456 22.5062C65.2214 21.8181 64.3188 21.6044 63.6299 22.0286C62.9417 22.4536 62.7281 23.3561 63.1531 24.0443L78.965 49.6707L44.9242 57.0811L35.9085 42.4685L57.7995 15.3682L59.568 18.2353C59.993 18.9235 60.8955 19.1371 61.5837 18.7129C62.2726 18.2879 62.4863 17.3854 62.0613 16.6965L57.6538 9.55381C57.5653 9.41038 57.5798 9.27076 57.5966 9.20057C57.6134 9.12962 57.663 8.99839 57.8064 8.90989L59.5589 7.82881C59.7786 7.693 60.067 7.76167 60.2028 7.98139L86.6447 50.8365C86.7332 50.9799 86.7188 51.1195 86.702 51.1897Z" fill="white"/>
</g>
<defs>
<clipPath id="clip0_1260_3736">
<rect width="100" height="100" fill="white" transform="translate(0 0.00488281)"/>
</clipPath>
</defs>
</svg>
