<svg width="160" height="160" viewBox="0 0 160 160" fill="none" xmlns="http://www.w3.org/2000/svg">
<circle cx="80" cy="80" r="80" fill="#FF4F5A" fill-opacity="0.35"/>
<circle cx="80" cy="80" r="65" fill="#FF4F5A" fill-opacity="0.45"/>
<circle cx="80" cy="80" r="50" fill="#FF4F5A" fill-opacity="0.55"/>
<circle cx="80" cy="80" r="35" fill="#FF4F5A"/>
<path d="M74 69.0456C74 68.8739 74.0737 68.7436 74.1872 68.6548L73.5711 67.8671C73.7138 67.7555 73.8757 67.6698 74.0482 67.6147L74.3529 68.5671C74.4901 68.5232 74.6394 68.5356 74.7813 68.6322L81.7953 73.4049L82.3579 72.5781L85.1635 74.4872L84.6009 75.3139L91.6149 80.0866C91.7383 80.1706 91.8062 80.2884 91.827 80.417L92.8142 80.2576C92.8401 80.418 92.8401 80.582 92.8142 80.7424L91.827 80.583C91.8062 80.7116 91.7383 80.8294 91.6149 80.9134L84.6009 85.6861L85.1635 86.5128L82.3579 88.4219L81.7953 87.5951L74.7813 92.3678C74.6394 92.4644 74.4901 92.4768 74.3529 92.4329L74.0482 93.3853C73.8757 93.3302 73.7138 93.2445 73.5711 93.1329L74.1872 92.3452C74.0737 92.2564 74 92.1261 74 91.9544V82.4091H73V78.5909H74V69.0456Z" stroke="white" stroke-width="2" stroke-dasharray="50 10"/>
</svg>
