<svg width="100" height="100" viewBox="0 0 100 100" fill="none" xmlns="http://www.w3.org/2000/svg">
<path d="M9.375 7.81348H12.5V10.9385H9.375V7.81348Z" fill="white"/>
<path d="M15.625 7.81348H18.75V10.9385H15.625V7.81348Z" fill="white"/>
<path d="M21.875 7.81348H25V10.9385H21.875V7.81348Z" fill="white"/>
<path d="M10.9375 46.876H45.3125C45.7269 46.876 46.1243 46.7114 46.4174 46.4183C46.7104 46.1253 46.875 45.7279 46.875 45.3135V20.3135C46.875 19.8991 46.7104 19.5016 46.4174 19.2086C46.1243 18.9156 45.7269 18.751 45.3125 18.751H10.9375C10.5231 18.751 10.1257 18.9156 9.83265 19.2086C9.53962 19.5016 9.375 19.8991 9.375 20.3135V45.3135C9.375 45.7279 9.53962 46.1253 9.83265 46.4183C10.1257 46.7114 10.5231 46.876 10.9375 46.876ZM12.5 21.876H43.75V43.751H12.5V21.876Z" fill="white"/>
<path d="M10.9375 76.5635H45.3125C45.7269 76.5635 46.1243 76.3989 46.4174 76.1058C46.7104 75.8128 46.875 75.4154 46.875 75.001V51.5635C46.875 51.1491 46.7104 50.7516 46.4174 50.4586C46.1243 50.1656 45.7269 50.001 45.3125 50.001H10.9375C10.5231 50.001 10.1257 50.1656 9.83265 50.4586C9.53962 50.7516 9.375 51.1491 9.375 51.5635V75.001C9.375 75.4154 9.53962 75.8128 9.83265 76.1058C10.1257 76.3989 10.5231 76.5635 10.9375 76.5635ZM12.5 53.126H43.75V73.4385H12.5V53.126Z" fill="white"/>
<path d="M73.4375 76.5635H76.5625V79.6885H73.4375V76.5635Z" fill="white"/>
<path d="M85.9375 76.5635H89.0625V79.6885H85.9375V76.5635Z" fill="white"/>
<path d="M81.25 87.501C80.4212 87.501 79.6263 87.1717 79.0403 86.5857C78.4542 85.9996 78.125 85.2048 78.125 84.376H75C75 86.0336 75.6585 87.6233 76.8306 88.7954C78.0027 89.9675 79.5924 90.626 81.25 90.626C82.9076 90.626 84.4973 89.9675 85.6694 88.7954C86.8415 87.6233 87.5 86.0336 87.5 84.376H84.375C84.375 85.2048 84.0458 85.9996 83.4597 86.5857C82.8737 87.1717 82.0788 87.501 81.25 87.501Z" fill="white"/>
<path d="M35.1563 31.4574L24.2188 25.2074C23.981 25.0701 23.7113 24.9979 23.4367 24.998C23.1622 24.9982 22.8925 25.0706 22.6549 25.2082C22.4173 25.3457 22.2201 25.5433 22.0832 25.7813C21.9463 26.0193 21.8745 26.2891 21.875 26.5636V39.0636C21.8745 39.3382 21.9463 39.608 22.0832 39.846C22.2201 40.0839 22.4173 40.2816 22.6549 40.4191C22.8925 40.5566 23.1622 40.6291 23.4367 40.6292C23.7113 40.6294 23.981 40.5572 24.2188 40.4199L35.1563 34.1699C35.3952 34.0332 35.5939 33.8357 35.732 33.5976C35.8701 33.3594 35.9429 33.089 35.9429 32.8136C35.9429 32.5383 35.8701 32.2679 35.732 32.0297C35.5939 31.7915 35.3952 31.5941 35.1563 31.4574ZM25 36.3699V29.2574L31.225 32.8136L25 36.3699Z" fill="white"/>
<path d="M82.812 48.4386C83.1092 48.4388 83.4003 48.3542 83.651 48.1947C83.9018 48.0353 84.102 47.8076 84.2279 47.5385C84.3539 47.2693 84.4005 46.9698 84.3622 46.6751C84.324 46.3804 84.2025 46.1027 84.012 45.8746L76.1995 36.4996C76.0605 36.3327 75.8883 36.1966 75.6938 36.1001C75.4993 36.0035 75.2868 35.9485 75.0698 35.9386C74.8527 35.9254 74.6352 35.9593 74.4324 36.0381C74.2295 36.1169 74.0462 36.2386 73.8948 36.3949L71.6026 38.6886L68.373 34.923C68.2221 34.7589 68.0388 34.6279 67.8346 34.5382C67.6305 34.4486 67.41 34.4023 67.187 34.4023C66.9641 34.4023 66.7436 34.4486 66.5394 34.5382C66.3353 34.6279 66.152 34.7589 66.0011 34.923L56.6261 45.8605C56.432 46.0874 56.307 46.3651 56.2659 46.6609C56.2247 46.9566 56.2692 47.2579 56.394 47.5291C56.5187 47.8004 56.7186 48.0302 56.9699 48.1914C57.2212 48.3526 57.5135 48.4384 57.812 48.4386H82.812ZM61.2089 45.3136L67.187 38.3386L73.1651 45.3136H61.2089ZM74.8948 39.8152L79.4761 45.3136H77.2808L73.6417 41.0683L74.8948 39.8152Z" fill="white"/>
<path d="M95.3125 3.12598H4.6875C4.2731 3.12598 3.87567 3.2906 3.58265 3.58362C3.28962 3.87665 3.125 4.27408 3.125 4.68848V81.251C3.125 81.6654 3.28962 82.0628 3.58265 82.3558C3.87567 82.6489 4.2731 82.8135 4.6875 82.8135H65.7047C66.1088 86.7993 68.0284 90.4776 71.067 93.0886C74.1056 95.6995 78.031 97.0435 82.0323 96.8429C86.0335 96.6423 89.8048 94.9125 92.5671 92.0108C95.3294 89.1091 96.8715 85.2572 96.875 81.251V4.68848C96.875 4.27408 96.7104 3.87665 96.4174 3.58362C96.1243 3.2906 95.7269 3.12598 95.3125 3.12598ZM81.25 93.751C78.7777 93.751 76.361 93.0179 74.3054 91.6443C72.2498 90.2708 70.6476 88.3186 69.7015 86.0345C68.7554 83.7504 68.5079 81.2371 68.9902 78.8123C69.4725 76.3876 70.663 74.1603 72.4112 72.4121C74.1593 70.664 76.3866 69.4735 78.8114 68.9912C81.2361 68.5088 83.7495 68.7564 86.0335 69.7025C88.3176 70.6486 90.2699 72.2507 91.6434 74.3064C93.0169 76.362 93.75 78.7787 93.75 81.251C93.7463 84.565 92.4281 87.7423 90.0847 90.0857C87.7413 92.4291 84.5641 93.7473 81.25 93.751ZM67.7391 73.4385H53.125V21.876H87.5V66.94C83.9845 65.3961 80.0225 65.2056 76.3751 66.4051C72.7277 67.6046 69.6521 70.1094 67.7391 73.4385ZM93.75 71.9166C92.861 70.7295 91.809 69.6738 90.625 68.7807V20.3135C90.625 19.8991 90.4604 19.5016 90.1674 19.2086C89.8743 18.9156 89.4769 18.751 89.0625 18.751H51.5625C51.1481 18.751 50.7507 18.9156 50.4576 19.2086C50.1646 19.5016 50 19.8991 50 20.3135V75.001C50 75.4154 50.1646 75.8128 50.4576 76.1058C50.7507 76.3989 51.1481 76.5635 51.5625 76.5635H66.3453C66.0245 77.5802 65.8098 78.6275 65.7047 79.6885H6.25V15.626H93.75V71.9166ZM93.75 12.501H6.25V6.25098H93.75V12.501Z" fill="white"/>
<path d="M15.625 56.251H40.625V59.376H15.625V56.251Z" fill="white"/>
<path d="M15.625 62.501H40.625V65.626H15.625V62.501Z" fill="white"/>
</svg>
