<svg width="100" height="101" viewBox="0 0 100 101" fill="none" xmlns="http://www.w3.org/2000/svg">
<path d="M97.0703 0H2.92969C1.31172 0 0 1.32484 0 2.95898V21.0512V98.041C0 99.6752 1.31172 101 2.92969 101H97.0703C98.6883 101 100 99.6752 100 98.041V2.95898C100 1.32484 98.6883 0 97.0703 0ZM94.1406 5.91797V18.0922H82.0869V5.91797H94.1406ZM5.85938 5.91797H76.2275V18.0922H5.85938V5.91797ZM94.1406 95.082H5.85938V24.0102H94.1406V95.082Z" fill="white"/>
<path d="M22.9936 56.5227L35.3696 44.2404C36.5235 43.095 36.5399 41.2216 35.4059 40.056C34.2721 38.8905 32.4172 38.8738 31.2627 40.0193L16.7785 54.3938C16.2211 54.947 15.9057 55.7021 15.9024 56.4913C15.899 57.2806 16.2078 58.0385 16.7606 58.5966L31.2446 73.2256C31.8166 73.8034 32.5664 74.0924 33.316 74.0924C34.0657 74.0924 34.8157 73.8034 35.3875 73.2256C36.5317 72.07 36.5317 70.1966 35.3875 69.041L22.9936 56.5227Z" fill="white"/>
<path d="M64.612 40.0376C63.4679 41.193 63.4679 43.0666 64.612 44.2222L77.0062 56.7405L64.6302 69.0228C63.4763 70.1681 63.4599 72.0416 64.5938 73.2072C65.1675 73.7968 65.9251 74.0924 66.6837 74.0924C67.4247 74.0924 68.1665 73.8101 68.737 73.2439L83.221 58.8694C83.7784 58.3162 84.0938 57.5611 84.0972 56.7718C84.1005 55.9826 83.7917 55.2247 83.239 54.6666L68.755 40.0376C67.6114 38.882 65.7563 38.882 64.612 40.0376V40.0376Z" fill="white"/>
<path d="M56.0716 39.3413C54.5466 38.7953 52.872 39.6009 52.3312 41.1412L42.1478 70.1447C41.607 71.685 42.4048 73.3763 43.9298 73.9224C44.2537 74.0384 44.5841 74.0934 44.9091 74.0934C46.1148 74.0934 47.2443 73.3357 47.6705 72.1225L57.8539 43.119C58.3945 41.5787 57.5966 39.8873 56.0716 39.3413Z" fill="white"/>
</svg>
